<svg width="300" height="300" viewBox="0 0 300 300" fill="none" xmlns="http://www.w3.org/2000/svg">
<rect width="300" height="300" rx="60" fill="#2B7FFF"/>
<mask id="mask0_291_26" style="mask-type:alpha" maskUnits="userSpaceOnUse" x="0" y="0" width="300" height="300">
<rect width="300" height="300" rx="60" fill="#2B7FFF"/>
</mask>
<g mask="url(#mask0_291_26)">
<path d="M189.359 300H300L225 170L150 40L75.0016 170L0 300H101.341C118.238 295.472 131.69 291.27 142.382 287.328C194.702 268.041 204.414 256.977 172.153 245.546C160.378 241.373 142.178 235.653 128.801 231.586C79.0212 216.441 54.6735 190.319 182.593 170.161C165.993 174.463 165.605 175.031 154.699 178.801C94.5455 199.586 119.342 209.414 155.256 221.498C167.352 225.567 181.164 229.501 194.258 233.542C241.668 248.17 279.39 271.092 189.359 300ZM169.464 123.384L160.992 121.003L156.149 128.354L145.994 143.773L133.197 136.976L125.485 132.88L119.197 138.942L91.3551 165.773L150.02 64.1073L187.056 128.329L169.464 123.384Z" fill="white"/>
</g>
</svg>
