<svg width="466" height="351" viewBox="0 0 466 351" fill="none" xmlns="http://www.w3.org/2000/svg">
<path d="M0 348.969V261.01H85.5539V348.969H56.2356V277.723L62.6806 284.005H22.8733L29.3183 277.723V348.969H0Z" fill="#2B7FFF"/>
<path d="M108.273 325.974C113.497 327.314 117.583 327.775 120.531 327.356C123.48 326.853 126.092 325.052 128.366 321.953L132.663 315.921L135.19 313.157L160.844 261.01H189.657L154.146 327.23C150.271 334.435 145.595 340.047 140.119 344.068C134.727 348.005 128.746 350.267 122.174 350.853C115.603 351.44 108.652 350.267 101.323 347.335L108.273 325.974ZM134.811 336.403L93.6141 261.01H125.081L150.987 315.921L134.811 336.403Z" fill="#2B7FFF"/>
<path d="M239.101 350.979C232.024 350.979 225.453 349.89 219.387 347.712C213.405 345.45 208.182 342.267 203.717 338.162C199.336 334.058 195.924 329.199 193.481 323.586C191.037 317.974 189.816 311.775 189.816 304.99C189.816 298.204 191.037 292.005 193.481 286.393C195.924 280.78 199.336 275.921 203.717 271.817C208.182 267.712 213.405 264.571 219.387 262.393C225.453 260.131 232.024 259 239.101 259C247.778 259 255.445 260.508 262.101 263.524C268.84 266.539 274.401 270.895 278.782 276.592L259.952 293.304C257.341 290.037 254.434 287.524 251.233 285.764C248.115 283.921 244.577 283 240.617 283C237.5 283 234.678 283.503 232.15 284.508C229.623 285.513 227.433 286.979 225.579 288.906C223.81 290.832 222.42 293.178 221.409 295.942C220.398 298.623 219.892 301.639 219.892 304.99C219.892 308.34 220.398 311.398 221.409 314.162C222.42 316.843 223.81 319.147 225.579 321.073C227.433 323 229.623 324.466 232.15 325.471C234.678 326.476 237.5 326.979 240.617 326.979C244.577 326.979 248.115 326.099 251.233 324.34C254.434 322.497 257.341 319.942 259.952 316.675L278.782 333.387C274.401 339 268.84 343.356 262.101 346.455C255.445 349.471 247.778 350.979 239.101 350.979Z" fill="#2B7FFF"/>
<path d="M307.269 348.969V277.597L313.714 284.005H281.362V261.01H362.493V284.005H330.142L336.587 277.597V348.969H307.269Z" fill="#2B7FFF"/>
<path d="M416.083 350.979C408.922 350.979 402.266 349.848 396.116 347.586C390.05 345.325 384.785 342.141 380.32 338.037C375.855 333.848 372.358 328.948 369.831 323.335C367.388 317.723 366.166 311.607 366.166 304.99C366.166 298.288 367.388 292.173 369.831 286.644C372.358 281.031 375.855 276.173 380.32 272.068C384.785 267.88 390.05 264.654 396.116 262.393C402.266 260.131 408.922 259 416.083 259C423.328 259 429.984 260.131 436.05 262.393C442.116 264.654 447.381 267.88 451.846 272.068C456.311 276.173 459.766 281.031 462.209 286.644C464.736 292.173 466 298.288 466 304.99C466 311.607 464.736 317.723 462.209 323.335C459.766 328.948 456.311 333.848 451.846 338.037C447.381 342.141 442.116 345.325 436.05 347.586C429.984 349.848 423.328 350.979 416.083 350.979ZM416.083 326.979C418.863 326.979 421.433 326.476 423.792 325.471C426.235 324.466 428.341 323.042 430.11 321.199C431.964 319.272 433.396 316.969 434.407 314.288C435.418 311.524 435.923 308.424 435.923 304.99C435.923 301.555 435.418 298.497 434.407 295.817C433.396 293.052 431.964 290.749 430.11 288.906C428.341 286.979 426.235 285.513 423.792 284.508C421.433 283.503 418.863 283 416.083 283C413.303 283 410.691 283.503 408.248 284.508C405.889 285.513 403.783 286.979 401.929 288.906C400.16 290.749 398.77 293.052 397.759 295.817C396.748 298.497 396.243 301.555 396.243 304.99C396.243 308.424 396.748 311.524 397.759 314.288C398.77 316.969 400.16 319.272 401.929 321.199C403.783 323.042 405.889 324.466 408.248 325.471C410.691 326.476 413.303 326.979 416.083 326.979Z" fill="#2B7FFF"/>
<path d="M323.003 0.884533C316.695 0.87985 310.472 2.33927 304.823 5.14793C299.175 7.95659 294.255 12.0378 290.452 17.0705C286.37 15.3137 281.915 14.5981 277.488 14.9881C273.06 15.3781 268.799 16.8613 265.087 19.3047C261.374 21.7481 258.327 25.0751 256.218 28.9871C254.109 32.8991 253.004 37.2737 253.003 41.718H363.837C363.837 36.3557 362.781 31.0459 360.728 26.0917C358.676 21.1376 355.669 16.6361 351.877 12.8444C348.085 9.05263 343.584 6.04485 338.63 3.99278C333.675 1.94071 328.366 0.884524 323.003 0.884533Z" fill="#AACCFF"/>
<path d="M80.1967 160.718C116.513 160.718 145.954 131.277 145.954 94.9604C145.954 58.6437 116.513 29.2031 80.1967 29.2031C43.88 29.2031 14.4395 58.6437 14.4395 94.9604C14.4395 131.277 43.88 160.718 80.1967 160.718Z" fill="#2B7FFF"/>
<path d="M466 231.327C463.096 231.327 460.48 231.331 458.002 231.327H19.0025C13.5958 231.336 5.64589 231.327 0.5 231.327L4.71239 225.677L53.6924 155.147L126.272 50.6571L127.332 49.1271L138.752 32.6871C139.52 31.5808 140.544 30.6768 141.737 30.0525C142.93 29.4281 144.256 29.1021 145.602 29.1021C146.949 29.1021 148.275 29.4281 149.468 30.0525C150.661 30.6768 151.685 31.5808 152.453 32.6871L190.393 87.2971V87.307L212.712 119.447L265.993 196.147L346.802 80.7971C347.572 79.697 348.595 78.7987 349.786 78.1786C350.977 77.5584 352.3 77.2346 353.642 77.2346C354.985 77.2346 356.308 77.5584 357.498 78.1786C358.689 78.7987 359.713 79.697 360.482 80.7971L412.322 154.787L415.302 159.037L466 231.327Z" fill="#263238"/>
<path d="M235.729 69.0667C227.946 69.0609 220.268 70.8614 213.3 74.3267C206.331 77.7919 200.261 82.8272 195.569 89.0363C190.532 86.8688 185.036 85.986 179.574 86.4671C174.112 86.9482 168.854 88.7782 164.274 91.7928C159.694 94.8074 155.934 98.9122 153.332 103.739C150.729 108.565 149.367 113.962 149.365 119.446H286.108C286.108 112.83 284.805 106.279 282.273 100.166C279.742 94.0541 276.031 88.5004 271.353 83.8223C266.674 79.1442 261.121 75.4333 255.008 72.9015C248.896 70.3697 242.345 69.0666 235.729 69.0667Z" fill="#84B5FF"/>
</svg>
