<svg width="233" height="131" viewBox="0 0 233 131" fill="none" xmlns="http://www.w3.org/2000/svg">
<rect width="233" height="131" fill="#BEDBFF"/>
<path d="M103 71L109.879 64.1213C110.157 63.8428 110.488 63.6218 110.852 63.471C111.216 63.3202 111.606 63.2426 112 63.2426C112.394 63.2426 112.784 63.3202 113.148 63.471C113.512 63.6218 113.843 63.8428 114.121 64.1213L121 71M119 69L120.879 67.1213C121.157 66.8428 121.488 66.6218 121.852 66.471C122.216 66.3202 122.606 66.2426 123 66.2426C123.394 66.2426 123.784 66.3202 124.148 66.471C124.512 66.6218 124.843 66.8428 125.121 67.1213L129 71M105 76H127C127.53 76 128.039 75.7893 128.414 75.4142C128.789 75.0391 129 74.5304 129 74V58C129 57.4696 128.789 56.9609 128.414 56.5858C128.039 56.2107 127.53 56 127 56H105C104.47 56 103.961 56.2107 103.586 56.5858C103.211 56.9609 103 57.4696 103 58V74C103 74.5304 103.211 75.0391 103.586 75.4142C103.961 75.7893 104.47 76 105 76ZM119 61H119.011V61.0107H119V61ZM119.5 61C119.5 61.1326 119.447 61.2598 119.354 61.3536C119.26 61.4473 119.133 61.5 119 61.5C118.867 61.5 118.74 61.4473 118.646 61.3536C118.553 61.2598 118.5 61.1326 118.5 61C118.5 60.8674 118.553 60.7402 118.646 60.6464C118.74 60.5527 118.867 60.5 119 60.5C119.133 60.5 119.26 60.5527 119.354 60.6464C119.447 60.7402 119.5 60.8674 119.5 61Z" stroke="white" stroke-width="2" stroke-linecap="round" stroke-linejoin="round"/>
</svg>
